{
	"asset":{
		"generator":"Khronos glTF Blender I/O v3.6.27",
		"version":"2.0"
	},
	"scene":0,
	"scenes":[
		{
			"name":"Scene",
			"nodes":[
				10,
				12,
				14,
				21
			]
		}
	],
	"nodes":[
		{
			"name":"pasted__Body_Bot",
			"translation":[
				1,
				0,
				0
			]
		},
		{
			"name":"pasted__Body_Top",
			"translation":[
				1,
				0,
				0
			]
		},
		{
			"name":"pasted__Wings_Side1_W2_Deform_B",
			"translation":[
				1,
				0,
				0
			]
		},
		{
			"name":"pasted__Wings_Side1_W2_Deform_T",
			"translation":[
				1,
				0,
				0
			]
		},
		{
			"name":"pasted__Wings_Side1_Wings2_Bot",
			"translation":[
				1,
				0,
				0
			]
		},
		{
			"name":"pasted__Wings_Side1_Wings2_Bot_copy1",
			"translation":[
				1,
				0,
				0
			]
		},
		{
			"name":"pasted__Wings_Top1_Wings1_Bot",
			"translation":[
				1,
				0,
				0
			]
		},
		{
			"name":"pasted__Wings_Top1_Wings1_Deform_B",
			"translation":[
				1,
				0,
				0
			]
		},
		{
			"name":"pasted__Wings_Top1_Wings1_Deform_T",
			"translation":[
				1,
				0,
				0
			]
		},
		{
			"name":"pasted__Wings_Top1_Wings1_Top",
			"translation":[
				1,
				0,
				0
			]
		},
		{
			"children":[
				0,
				1,
				2,
				3,
				4,
				5,
				6,
				7,
				8,
				9
			],
			"name":"group2",
			"translation":[
				304.1553955078125,
				-34.66093444824219,
				0
			]
		},
		{
			"name":"0b8bbf815416438899410cb2e5ac7af1.obj.cleaner.gles"
		},
		{
			"children":[
				11
			],
			"name":"Sketchfab_model",
			"rotation":[
				-0.04097789525985718,
				-0.9520253539085388,
				-0.029855595901608467,
				0.3017900586128235
			],
			"translation":[
				-8.646016120910645,
				10.540045738220215,
				13.667827606201172
			]
		},
		{
			"name":"cb43a1395ef54cb28ac0a7a7fe163c61.obj.cleaner.materialmerger.gle"
		},
		{
			"children":[
				13
			],
			"name":"Sketchfab_model.001",
			"rotation":[
				-0.70710688829422,
				0,
				0,
				0.7071066498756409
			]
		},
		{
			"mesh":0,
			"name":"Group46259_defaultMat_0"
		},
		{
			"children":[
				15
			],
			"name":"Group46259",
			"rotation":[
				-0.70710688829422,
				0,
				0,
				0.7071066498756409
			]
		},
		{
			"mesh":1,
			"name":"Group49690_defaultMat_0"
		},
		{
			"children":[
				17
			],
			"name":"Group49690",
			"rotation":[
				-0.70710688829422,
				0,
				0,
				0.7071066498756409
			]
		},
		{
			"children":[
				16,
				18
			],
			"name":"RootNode"
		},
		{
			"children":[
				19
			],
			"name":"Fairy.FBX",
			"rotation":[
				0.70710688829422,
				0,
				0,
				0.7071066498756409
			]
		},
		{
			"children":[
				20
			],
			"name":"Sketchfab_model.002",
			"rotation":[
				-0.70710688829422,
				0,
				0,
				0.7071066498756409
			]
		}
	],
	"materials":[
		{
			"doubleSided":true,
			"emissiveFactor":[
				1,
				1,
				1
			],
			"emissiveTexture":{
				"index":0
			},
			"name":"defaultMat_0",
			"pbrMetallicRoughness":{
				"baseColorFactor":[
					0.5879999995231628,
					0.5879999995231628,
					0.5879999995231628,
					1
				],
				"metallicFactor":0.6236661672592163,
				"roughnessFactor":0.6000000238418579
			}
		},
		{
			"doubleSided":true,
			"emissiveFactor":[
				1,
				1,
				1
			],
			"emissiveTexture":{
				"index":1
			},
			"name":"defaultMat",
			"normalTexture":{
				"index":2
			},
			"occlusionTexture":{
				"index":3
			},
			"pbrMetallicRoughness":{
				"baseColorTexture":{
					"index":4
				},
				"metallicRoughnessTexture":{
					"index":3
				}
			}
		}
	],
	"meshes":[
		{
			"name":"Group46259_defaultMat_0",
			"primitives":[
				{
					"attributes":{
						"POSITION":0,
						"NORMAL":1,
						"TEXCOORD_0":2
					},
					"indices":3,
					"material":0
				}
			]
		},
		{
			"name":"Group49690_defaultMat_0",
			"primitives":[
				{
					"attributes":{
						"POSITION":4,
						"NORMAL":5,
						"TEXCOORD_0":6
					},
					"indices":7,
					"material":1
				}
			]
		}
	],
	"textures":[
		{
			"sampler":0,
			"source":0
		},
		{
			"sampler":0,
			"source":1
		},
		{
			"sampler":0,
			"source":2
		},
		{
			"sampler":0,
			"source":3
		},
		{
			"sampler":0,
			"source":4
		}
	],
	"images":[
		{
			"bufferView":4,
			"mimeType":"image/png",
			"name":"defaultMat_0_emissive"
		},
		{
			"bufferView":9,
			"mimeType":"image/png",
			"name":"defaultMat_emissive"
		},
		{
			"bufferView":10,
			"mimeType":"image/png",
			"name":"defaultMat_normal"
		},
		{
			"bufferView":11,
			"mimeType":"image/png",
			"name":"defaultMat_metallicRoughness"
		},
		{
			"bufferView":12,
			"mimeType":"image/png",
			"name":"defaultMat_baseColor"
		}
	],
	"accessors":[
		{
			"bufferView":0,
			"componentType":5126,
			"count":332,
			"max":[
				0.47518518567085266,
				-0.5000594258308411,
				0.20663321018218994
			],
			"min":[
				-0.47518518567085266,
				-0.860276460647583,
				-0.15050357580184937
			],
			"type":"VEC3"
		},
		{
			"bufferView":1,
			"componentType":5126,
			"count":332,
			"type":"VEC3"
		},
		{
			"bufferView":2,
			"componentType":5126,
			"count":332,
			"type":"VEC2"
		},
		{
			"bufferView":3,
			"componentType":5123,
			"count":1680,
			"type":"SCALAR"
		},
		{
			"bufferView":5,
			"componentType":5126,
			"count":5088,
			"max":[
				3.9423270225524902,
				1.6405706405639648,
				2.236644744873047
			],
			"min":[
				-3.9423270225524902,
				-1.7198337316513062,
				-7.668594837188721
			],
			"type":"VEC3"
		},
		{
			"bufferView":6,
			"componentType":5126,
			"count":5088,
			"type":"VEC3"
		},
		{
			"bufferView":7,
			"componentType":5126,
			"count":5088,
			"type":"VEC2"
		},
		{
			"bufferView":8,
			"componentType":5123,
			"count":22566,
			"type":"SCALAR"
		}
	],
	"bufferViews":[
		{
			"buffer":0,
			"byteLength":3984,
			"byteOffset":0,
			"target":34962
		},
		{
			"buffer":0,
			"byteLength":3984,
			"byteOffset":3984,
			"target":34962
		},
		{
			"buffer":0,
			"byteLength":2656,
			"byteOffset":7968,
			"target":34962
		},
		{
			"buffer":0,
			"byteLength":3360,
			"byteOffset":10624,
			"target":34963
		},
		{
			"buffer":0,
			"byteLength":222,
			"byteOffset":13984
		},
		{
			"buffer":0,
			"byteLength":61056,
			"byteOffset":14208,
			"target":34962
		},
		{
			"buffer":0,
			"byteLength":61056,
			"byteOffset":75264,
			"target":34962
		},
		{
			"buffer":0,
			"byteLength":40704,
			"byteOffset":136320,
			"target":34962
		},
		{
			"buffer":0,
			"byteLength":45132,
			"byteOffset":177024,
			"target":34963
		},
		{
			"buffer":0,
			"byteLength":362636,
			"byteOffset":222156
		},
		{
			"buffer":0,
			"byteLength":876032,
			"byteOffset":584792
		},
		{
			"buffer":0,
			"byteLength":598806,
			"byteOffset":1460824
		},
		{
			"buffer":0,
			"byteLength":528005,
			"byteOffset":2059632
		}
	],
	"samplers":[
		{
			"magFilter":9729,
			"minFilter":9987
		}
	],
	"buffers":[
		{
			"byteLength":2587640,
			"uri":"data:application/octet-stream;base64,"
		}
	]
}
