{
	"asset":{
		"generator":"Khronos glTF Blender I/O v3.6.27",
		"version":"2.0"
	},
	"scene":0,
	"scenes":[
		{
			"name":"Scene",
			"nodes":[
				10,
				12,
				15
			]
		}
	],
	"nodes":[
		{
			"name":"pasted__Body_Bot",
			"translation":[
				1,
				0,
				0
			]
		},
		{
			"name":"pasted__Body_Top",
			"translation":[
				1,
				0,
				0
			]
		},
		{
			"name":"pasted__Wings_Side1_W2_Deform_B",
			"translation":[
				1,
				0,
				0
			]
		},
		{
			"name":"pasted__Wings_Side1_W2_Deform_T",
			"translation":[
				1,
				0,
				0
			]
		},
		{
			"name":"pasted__Wings_Side1_Wings2_Bot",
			"translation":[
				1,
				0,
				0
			]
		},
		{
			"name":"pasted__Wings_Side1_Wings2_Bot_copy1",
			"translation":[
				1,
				0,
				0
			]
		},
		{
			"name":"pasted__Wings_Top1_Wings1_Bot",
			"translation":[
				1,
				0,
				0
			]
		},
		{
			"name":"pasted__Wings_Top1_Wings1_Deform_B",
			"translation":[
				1,
				0,
				0
			]
		},
		{
			"name":"pasted__Wings_Top1_Wings1_Deform_T",
			"translation":[
				1,
				0,
				0
			]
		},
		{
			"name":"pasted__Wings_Top1_Wings1_Top",
			"translation":[
				1,
				0,
				0
			]
		},
		{
			"children":[
				0,
				1,
				2,
				3,
				4,
				5,
				6,
				7,
				8,
				9
			],
			"name":"group2",
			"translation":[
				304.1553955078125,
				-34.66093444824219,
				0
			]
		},
		{
			"name":"0b8bbf815416438899410cb2e5ac7af1.obj.cleaner.gles"
		},
		{
			"children":[
				11
			],
			"name":"Sketchfab_model",
			"rotation":[
				-0.04097789525985718,
				-0.9520253539085388,
				-0.029855595901608467,
				0.3017900586128235
			],
			"translation":[
				-8.646016120910645,
				10.540045738220215,
				13.667827606201172
			]
		},
		{
			"mesh":0,
			"name":"Object_2"
		},
		{
			"children":[
				13
			],
			"name":"cb43a1395ef54cb28ac0a7a7fe163c61.obj.cleaner.materialmerger.gle"
		},
		{
			"children":[
				14
			],
			"name":"Sketchfab_model.001",
			"rotation":[
				-0.70710688829422,
				0,
				0,
				0.7071066498756409
			]
		}
	],
	"materials":[
		{
			"doubleSided":true,
			"emissiveFactor":[
				0.017100486904382706,
				0.017100486904382706,
				0.017100486904382706
			],
			"name":"material_0.001",
			"pbrMetallicRoughness":{
				"baseColorFactor":[
					0.7241664528846741,
					0.7241664528846741,
					0.7241664528846741,
					1
				],
				"metallicFactor":0,
				"roughnessFactor":0.6000000238418579
			}
		}
	],
	"meshes":[
		{
			"name":"Object_0.001",
			"primitives":[
				{
					"attributes":{
						"POSITION":0,
						"NORMAL":1
					},
					"indices":2,
					"material":0
				}
			]
		}
	],
	"accessors":[
		{
			"bufferView":0,
			"componentType":5126,
			"count":5362,
			"max":[
				457.7467346191406,
				26.969785690307617,
				349.983642578125
			],
			"min":[
				-366.9019775390625,
				-156.51637268066406,
				71.48175811767578
			],
			"type":"VEC3"
		},
		{
			"bufferView":1,
			"componentType":5126,
			"count":5362,
			"type":"VEC3"
		},
		{
			"bufferView":2,
			"componentType":5123,
			"count":32028,
			"type":"SCALAR"
		}
	],
	"bufferViews":[
		{
			"buffer":0,
			"byteLength":64344,
			"byteOffset":0,
			"target":34962
		},
		{
			"buffer":0,
			"byteLength":64344,
			"byteOffset":64344,
			"target":34962
		},
		{
			"buffer":0,
			"byteLength":64056,
			"byteOffset":128688,
			"target":34963
		}
	],
	"buffers":[
		{
			"byteLength":192744,
			"uri":"data:application/octet-stream;base64,"
		}
	]
}
