{
	"asset":{
		"generator":"Khronos glTF Blender I/O v3.6.27",
		"version":"2.0"
	},
	"scene":0,
	"scenes":[
		{
			"name":"Scene",
			"nodes":[
				10,
				12,
				14,
				20,
				30
			]
		}
	],
	"nodes":[
		{
			"name":"pasted__Body_Bot",
			"translation":[
				1,
				0,
				0
			]
		},
		{
			"name":"pasted__Body_Top",
			"translation":[
				1,
				0,
				0
			]
		},
		{
			"name":"pasted__Wings_Side1_W2_Deform_B",
			"translation":[
				1,
				0,
				0
			]
		},
		{
			"name":"pasted__Wings_Side1_W2_Deform_T",
			"translation":[
				1,
				0,
				0
			]
		},
		{
			"name":"pasted__Wings_Side1_Wings2_Bot",
			"translation":[
				1,
				0,
				0
			]
		},
		{
			"name":"pasted__Wings_Side1_Wings2_Bot_copy1",
			"translation":[
				1,
				0,
				0
			]
		},
		{
			"name":"pasted__Wings_Top1_Wings1_Bot",
			"translation":[
				1,
				0,
				0
			]
		},
		{
			"name":"pasted__Wings_Top1_Wings1_Deform_B",
			"translation":[
				1,
				0,
				0
			]
		},
		{
			"name":"pasted__Wings_Top1_Wings1_Deform_T",
			"translation":[
				1,
				0,
				0
			]
		},
		{
			"name":"pasted__Wings_Top1_Wings1_Top",
			"translation":[
				1,
				0,
				0
			]
		},
		{
			"children":[
				0,
				1,
				2,
				3,
				4,
				5,
				6,
				7,
				8,
				9
			],
			"name":"group2",
			"translation":[
				304.1553955078125,
				-34.66093444824219,
				0
			]
		},
		{
			"name":"0b8bbf815416438899410cb2e5ac7af1.obj.cleaner.gles"
		},
		{
			"children":[
				11
			],
			"name":"Sketchfab_model",
			"rotation":[
				-0.04097789525985718,
				-0.9520253539085388,
				-0.029855595901608467,
				0.3017900586128235
			],
			"translation":[
				-8.646016120910645,
				10.540045738220215,
				13.667827606201172
			]
		},
		{
			"name":"cb43a1395ef54cb28ac0a7a7fe163c61.obj.cleaner.materialmerger.gle"
		},
		{
			"children":[
				13
			],
			"name":"Sketchfab_model.001",
			"rotation":[
				-0.70710688829422,
				0,
				0,
				0.7071066498756409
			]
		},
		{
			"mesh":0,
			"name":"Group46259_defaultMat_0"
		},
		{
			"children":[
				15
			],
			"name":"Group46259",
			"rotation":[
				-0.70710688829422,
				0,
				0,
				0.7071066498756409
			]
		},
		{
			"name":"Group49690",
			"rotation":[
				-0.70710688829422,
				0,
				0,
				0.7071066498756409
			]
		},
		{
			"children":[
				16,
				17
			],
			"name":"RootNode"
		},
		{
			"children":[
				18
			],
			"name":"Fairy.FBX",
			"rotation":[
				0.70710688829422,
				0,
				0,
				0.7071066498756409
			]
		},
		{
			"children":[
				19
			],
			"name":"Sketchfab_model.002",
			"rotation":[
				-0.70710688829422,
				0,
				0,
				0.7071066498756409
			]
		},
		{
			"name":"Object_9"
		},
		{
			"children":[
				21
			],
			"name":"Camera",
			"rotation":[
				-0.21255725622177124,
				0.9047970175743103,
				-0.08438936620950699,
				0.3592217266559601
			],
			"scale":[
				100.00000762939453,
				100.00000762939453,
				100
			],
			"translation":[
				748.1131591796875,
				534.3665161132812,
				650.7639770507812
			]
		},
		{
			"mesh":1,
			"name":"Cylinder_Material.001_0"
		},
		{
			"children":[
				23
			],
			"name":"Cylinder",
			"rotation":[
				-0.70710688829422,
				0,
				0,
				0.7071066498756409
			],
			"scale":[
				100,
				99.99999237060547,
				99.99999237060547
			]
		},
		{
			"name":"Object_7"
		},
		{
			"children":[
				25
			],
			"name":"Object_6",
			"rotation":[
				0.70710688829422,
				0,
				0,
				0.7071066498756409
			]
		},
		{
			"children":[
				26
			],
			"name":"Lamp",
			"rotation":[
				0.16907571256160736,
				0.7558803558349609,
				-0.27217134833335876,
				0.5709474682807922
			],
			"scale":[
				100.00000762939453,
				100,
				100
			],
			"translation":[
				407.6245422363281,
				590.38623046875,
				-100.54539489746094
			]
		},
		{
			"children":[
				22,
				24,
				27
			],
			"name":"RootNode.001"
		},
		{
			"children":[
				28
			],
			"name":"03e1c3d77dd94af298b3e85ac0379730.fbx",
			"rotation":[
				0.70710688829422,
				0,
				0,
				0.7071066498756409
			]
		},
		{
			"children":[
				29
			],
			"name":"Sketchfab_model.003",
			"rotation":[
				-0.70710688829422,
				0,
				0,
				0.7071066498756409
			]
		}
	],
	"materials":[
		{
			"doubleSided":true,
			"emissiveFactor":[
				1,
				1,
				1
			],
			"emissiveTexture":{
				"index":0
			},
			"name":"defaultMat_0",
			"pbrMetallicRoughness":{
				"baseColorFactor":[
					0.5879999995231628,
					0.5879999995231628,
					0.5879999995231628,
					1
				],
				"metallicFactor":0.6236661672592163,
				"roughnessFactor":0.6000000238418579
			}
		},
		{
			"doubleSided":true,
			"emissiveFactor":[
				1,
				1,
				1
			],
			"emissiveTexture":{
				"index":1
			},
			"name":"Material.001",
			"pbrMetallicRoughness":{
				"baseColorTexture":{
					"index":2
				},
				"metallicFactor":0,
				"roughnessFactor":0.6000000238418579
			}
		}
	],
	"meshes":[
		{
			"name":"Group46259_defaultMat_0",
			"primitives":[
				{
					"attributes":{
						"POSITION":0,
						"NORMAL":1,
						"TEXCOORD_0":2
					},
					"indices":3,
					"material":0
				}
			]
		},
		{
			"name":"Cylinder_Material.001_0",
			"primitives":[
				{
					"attributes":{
						"POSITION":4,
						"NORMAL":5,
						"TEXCOORD_0":6
					},
					"indices":7,
					"material":1
				}
			]
		}
	],
	"textures":[
		{
			"sampler":0,
			"source":0
		},
		{
			"sampler":0,
			"source":1
		},
		{
			"sampler":0,
			"source":2
		}
	],
	"images":[
		{
			"bufferView":4,
			"mimeType":"image/png",
			"name":"defaultMat_0_emissive"
		},
		{
			"bufferView":9,
			"mimeType":"image/jpeg",
			"name":"Material.001_emissive"
		},
		{
			"bufferView":10,
			"mimeType":"image/jpeg",
			"name":"Material.001_baseColor"
		}
	],
	"accessors":[
		{
			"bufferView":0,
			"componentType":5126,
			"count":332,
			"max":[
				0.47518518567085266,
				-0.5000594258308411,
				0.20663321018218994
			],
			"min":[
				-0.47518518567085266,
				-0.860276460647583,
				-0.15050357580184937
			],
			"type":"VEC3"
		},
		{
			"bufferView":1,
			"componentType":5126,
			"count":332,
			"type":"VEC3"
		},
		{
			"bufferView":2,
			"componentType":5126,
			"count":332,
			"type":"VEC2"
		},
		{
			"bufferView":3,
			"componentType":5123,
			"count":1680,
			"type":"SCALAR"
		},
		{
			"bufferView":5,
			"componentType":5126,
			"count":675,
			"max":[
				1.0438612699508667,
				0.7115031480789185,
				3.6552038192749023
			],
			"min":[
				-1.3036327362060547,
				-1.2132333517074585,
				-0.008926153182983398
			],
			"type":"VEC3"
		},
		{
			"bufferView":6,
			"componentType":5126,
			"count":675,
			"type":"VEC3"
		},
		{
			"bufferView":7,
			"componentType":5126,
			"count":675,
			"type":"VEC2"
		},
		{
			"bufferView":8,
			"componentType":5123,
			"count":3516,
			"type":"SCALAR"
		}
	],
	"bufferViews":[
		{
			"buffer":0,
			"byteLength":3984,
			"byteOffset":0,
			"target":34962
		},
		{
			"buffer":0,
			"byteLength":3984,
			"byteOffset":3984,
			"target":34962
		},
		{
			"buffer":0,
			"byteLength":2656,
			"byteOffset":7968,
			"target":34962
		},
		{
			"buffer":0,
			"byteLength":3360,
			"byteOffset":10624,
			"target":34963
		},
		{
			"buffer":0,
			"byteLength":222,
			"byteOffset":13984
		},
		{
			"buffer":0,
			"byteLength":8100,
			"byteOffset":14208,
			"target":34962
		},
		{
			"buffer":0,
			"byteLength":8100,
			"byteOffset":22308,
			"target":34962
		},
		{
			"buffer":0,
			"byteLength":5400,
			"byteOffset":30408,
			"target":34962
		},
		{
			"buffer":0,
			"byteLength":7032,
			"byteOffset":35808,
			"target":34963
		},
		{
			"buffer":0,
			"byteLength":107671,
			"byteOffset":42840
		},
		{
			"buffer":0,
			"byteLength":172503,
			"byteOffset":150512
		}
	],
	"samplers":[
		{
			"magFilter":9729,
			"minFilter":9987
		}
	],
	"buffers":[
		{
			"byteLength":323016,
			"uri":"data:application/octet-stream;base64,"
		}
	]
}
